<svg width="640" height="157" viewBox="0 0 640 157" fill="none" xmlns="http://www.w3.org/2000/svg">
<g clip-path="url(#clip0_3101_423)">
<path d="M184.062 40C191.649 40 196.246 48.7542 192.555 55.3681C188.361 62.8862 184.308 71.7629 183.877 78.5919C183.455 85.2897 187.563 93.9189 192.136 101.301C196.147 107.775 191.735 117 184.106 117C184.076 117 184.054 117 184.024 117C183.104 116.983 165.64 116.167 165.64 78.5919C165.64 40 184.062 40 184.062 40Z" fill="url(#paint0_linear_3101_423)"/>
<path d="M129.718 40C122.131 40 117.578 48.8197 121.353 55.3853C125.672 62.8997 129.84 71.7681 130.27 78.5919C130.709 85.5474 126.471 94.5857 121.91 102.147C118.173 108.342 122.427 117 129.675 117C129.703 117 129.724 117 129.752 117C130.639 116.984 148.139 116.206 148.139 78.5919C148.139 40 129.718 40 129.718 40Z" fill="url(#paint1_linear_3101_423)"/>
<path d="M121.889 56.355C121.889 56.355 142.272 69.7702 156.982 69.7702C171.691 69.7702 192.166 56.355 192.166 56.355C192.166 56.355 184.085 69.4674 184.061 78.775C184.036 88.1501 192.166 101.379 192.166 101.379C192.166 101.379 171.743 87.596 156.982 87.596C142.22 87.596 122.073 101.746 122.073 101.746C122.073 101.746 130.087 88.2328 130.087 78.8669C130.087 69.501 121.889 56.355 121.889 56.355Z" fill="url(#paint2_linear_3101_423)"/>
<path d="M242.892 70.6941C242.566 71.1048 242.24 71.4256 241.914 71.6566C241.588 71.8619 241.125 71.9646 240.528 71.9646C239.984 71.9646 239.454 71.8234 238.939 71.5411C238.45 71.2331 237.879 70.9123 237.227 70.5786C236.575 70.2193 235.801 69.8984 234.905 69.6161C234.008 69.3081 232.894 69.1541 231.563 69.1541C229.878 69.1541 228.411 69.4493 227.162 70.0396C225.94 70.6043 224.921 71.4256 224.106 72.5036C223.291 73.5816 222.68 74.8906 222.272 76.4306C221.891 77.9706 221.702 79.7031 221.702 81.6281C221.702 85.6834 222.557 88.7891 224.269 90.9451C226.007 93.1011 228.37 94.1791 231.359 94.1791C232.391 94.1791 233.275 94.1021 234.008 93.9481C234.768 93.7684 235.42 93.5503 235.964 93.2936C236.535 93.0369 237.024 92.7546 237.431 92.4466C237.839 92.1386 238.219 91.8563 238.572 91.5996C238.952 91.3429 239.319 91.1376 239.672 90.9836C240.052 90.8039 240.473 90.7141 240.936 90.7141C241.805 90.7141 242.484 91.0221 242.973 91.6381L246.193 95.4881C244.997 96.7971 243.72 97.8879 242.362 98.7606C241.003 99.6076 239.591 100.288 238.124 100.801C236.683 101.289 235.216 101.622 233.723 101.802C232.228 102.007 230.748 102.11 229.281 102.11C226.7 102.11 224.255 101.661 221.946 100.763C219.637 99.8385 217.612 98.5039 215.874 96.7586C214.135 95.0133 212.75 92.8701 211.718 90.3291C210.712 87.7881 210.21 84.8878 210.21 81.6281C210.21 78.7278 210.658 76.0328 211.555 73.5431C212.451 71.0534 213.768 68.8974 215.508 67.0751C217.246 65.2528 219.392 63.8283 221.946 62.8016C224.527 61.7493 227.501 61.2231 230.87 61.2231C234.075 61.2231 236.887 61.7108 239.306 62.6861C241.723 63.6614 243.896 65.0731 245.826 66.9211L242.892 70.6941ZM263.46 61.8391V101.533H252.213V61.8391H263.46ZM264.805 50.5586C264.805 51.4569 264.615 52.2911 264.235 53.0611C263.854 53.8311 263.338 54.5113 262.686 55.1016C262.061 55.6919 261.314 56.1539 260.445 56.4876C259.602 56.8213 258.693 56.9881 257.715 56.9881C256.791 56.9881 255.907 56.8213 255.066 56.4876C254.251 56.1539 253.531 55.6919 252.906 55.1016C252.281 54.5113 251.778 53.8311 251.398 53.0611C251.045 52.2911 250.869 51.4569 250.869 50.5586C250.869 49.6603 251.045 48.8261 251.398 48.0561C251.778 47.2604 252.281 46.5674 252.906 45.9771C253.531 45.3868 254.251 44.9248 255.066 44.5911C255.907 44.2574 256.791 44.0906 257.715 44.0906C258.693 44.0906 259.602 44.2574 260.445 44.5911C261.314 44.9248 262.061 45.3868 262.686 45.9771C263.338 46.5674 263.854 47.2604 264.235 48.0561C264.615 48.8261 264.805 49.6603 264.805 50.5586ZM311.73 61.8391L295.226 101.533H285.039L268.535 61.8391H277.867C278.682 61.8391 279.361 62.0188 279.904 62.3781C280.447 62.7374 280.828 63.1994 281.045 63.7641L288.095 83.3991C288.557 84.7338 288.964 86.0428 289.318 87.3261C289.671 88.5838 289.983 89.8543 290.255 91.1376C290.553 89.8543 290.879 88.5838 291.233 87.3261C291.613 86.0428 292.048 84.7338 292.537 83.3991L299.831 63.7641C300.022 63.1994 300.388 62.7374 300.931 62.3781C301.474 62.0188 302.113 61.8391 302.847 61.8391H311.73ZM328.087 61.8391V101.533H316.84V61.8391H328.087ZM329.432 50.5586C329.432 51.4569 329.243 52.2911 328.862 53.0611C328.482 53.8311 327.965 54.5113 327.313 55.1016C326.689 55.6919 325.942 56.1539 325.072 56.4876C324.23 56.8213 323.32 56.9881 322.342 56.9881C321.419 56.9881 320.535 56.8213 319.693 56.4876C318.878 56.1539 318.159 55.6919 317.533 55.1016C316.909 54.5113 316.406 53.8311 316.025 53.0611C315.673 52.2911 315.496 51.4569 315.496 50.5586C315.496 49.6603 315.673 48.8261 316.025 48.0561C316.406 47.2604 316.909 46.5674 317.533 45.9771C318.159 45.3868 318.878 44.9248 319.693 44.5911C320.535 44.2574 321.419 44.0906 322.342 44.0906C323.32 44.0906 324.23 44.2574 325.072 44.5911C325.942 44.9248 326.689 45.3868 327.313 45.9771C327.965 46.5674 328.482 47.2604 328.862 48.0561C329.243 48.8261 329.432 49.6603 329.432 50.5586ZM368.166 70.6941C367.84 71.1048 367.514 71.4256 367.188 71.6566C366.862 71.8619 366.401 71.9646 365.803 71.9646C365.26 71.9646 364.73 71.8234 364.214 71.5411C363.725 71.2331 363.154 70.9123 362.502 70.5786C361.85 70.2193 361.076 69.8984 360.179 69.6161C359.283 69.3081 358.169 69.1541 356.838 69.1541C355.154 69.1541 353.687 69.4493 352.437 70.0396C351.214 70.6043 350.196 71.4256 349.381 72.5036C348.566 73.5816 347.954 74.8906 347.547 76.4306C347.167 77.9706 346.976 79.7031 346.976 81.6281C346.976 85.6834 347.832 88.7891 349.544 90.9451C351.283 93.1011 353.646 94.1791 356.634 94.1791C357.667 94.1791 358.549 94.1021 359.283 93.9481C360.044 93.7684 360.696 93.5503 361.239 93.2936C361.809 93.0369 362.298 92.7546 362.706 92.4466C363.113 92.1386 363.494 91.8563 363.847 91.5996C364.228 91.3429 364.595 91.1376 364.947 90.9836C365.328 90.8039 365.749 90.7141 366.21 90.7141C367.08 90.7141 367.759 91.0221 368.248 91.6381L371.467 95.4881C370.272 96.7971 368.996 97.8879 367.637 98.7606C366.279 99.6076 364.866 100.288 363.399 100.801C361.959 101.289 360.492 101.622 358.998 101.802C357.504 102.007 356.023 102.11 354.556 102.11C351.975 102.11 349.53 101.661 347.221 100.763C344.912 99.8385 342.888 98.5039 341.149 96.7586C339.411 95.0133 338.025 92.8701 336.992 90.3291C335.988 87.7881 335.485 84.8878 335.485 81.6281C335.485 78.7278 335.933 76.0328 336.829 73.5431C337.726 71.0534 339.044 68.8974 340.782 67.0751C342.521 65.2528 344.668 63.8283 347.221 62.8016C349.802 61.7493 352.777 61.2231 356.145 61.2231C359.351 61.2231 362.163 61.7108 364.58 62.6861C366.999 63.6614 369.172 65.0731 371.1 66.9211L368.166 70.6941ZM403.283 70.0011C402.985 70.4374 402.672 70.7583 402.346 70.9636C402.047 71.1433 401.627 71.2331 401.083 71.2331C400.54 71.2331 399.982 71.1048 399.412 70.8481C398.841 70.5914 398.204 70.3219 397.497 70.0396C396.791 69.7316 395.976 69.4493 395.052 69.1926C394.155 68.9359 393.11 68.8076 391.914 68.8076C390.094 68.8076 388.681 69.1669 387.676 69.8856C386.671 70.5786 386.168 71.5026 386.168 72.6576C386.168 73.4533 386.453 74.1206 387.024 74.6596C387.594 75.1986 388.342 75.6734 389.265 76.0841C390.216 76.4691 391.289 76.8413 392.484 77.2006C393.68 77.5343 394.903 77.9064 396.152 78.3171C397.429 78.7278 398.665 79.2026 399.86 79.7416C401.056 80.2806 402.116 80.9608 403.039 81.7821C403.99 82.5778 404.75 83.5531 405.321 84.7081C405.891 85.8374 406.176 87.2106 406.176 88.8276C406.176 90.7526 405.796 92.5364 405.035 94.1791C404.302 95.7961 403.216 97.1949 401.775 98.3756C400.336 99.5563 398.543 100.48 396.396 101.148C394.251 101.815 391.778 102.149 388.98 102.149C387.54 102.149 386.114 102.02 384.701 101.764C383.289 101.533 381.944 101.199 380.667 100.763C379.39 100.301 378.195 99.7744 377.081 99.184C375.967 98.5937 375.002 97.952 374.187 97.259L376.795 93.2936C377.095 92.8316 377.462 92.4723 377.896 92.2156C378.358 91.9589 378.942 91.8306 379.648 91.8306C380.327 91.8306 380.952 91.9974 381.522 92.3311C382.093 92.6391 382.732 92.9856 383.438 93.3706C384.145 93.7299 384.973 94.0764 385.923 94.4101C386.901 94.7181 388.111 94.8721 389.55 94.8721C390.637 94.8721 391.574 94.7566 392.362 94.5256C393.15 94.2946 393.788 93.9866 394.277 93.6016C394.766 93.1909 395.12 92.7418 395.337 92.2541C395.581 91.7408 395.704 91.2146 395.704 90.6756C395.704 89.8029 395.405 89.0971 394.807 88.5581C394.237 87.9934 393.476 87.5058 392.525 87.0951C391.602 86.6844 390.528 86.3123 389.306 85.9786C388.083 85.6449 386.834 85.2728 385.557 84.8621C384.308 84.4514 383.071 83.9638 381.848 83.3991C380.653 82.8344 379.581 82.1286 378.629 81.2816C377.706 80.4089 376.945 79.3438 376.347 78.0861C375.777 76.8284 375.491 75.3013 375.491 73.5046C375.491 71.8619 375.832 70.3091 376.51 68.8461C377.19 67.3574 378.208 66.0484 379.566 64.9191C380.925 63.7898 382.609 62.8914 384.619 62.2241C386.657 61.5568 389.007 61.2231 391.669 61.2231C394.658 61.2231 397.374 61.6851 399.819 62.6091C402.264 63.5331 404.275 64.7394 405.85 66.2281L403.283 70.0011ZM424.464 65.7276C425.252 65.0603 426.067 64.4571 426.909 63.9181C427.778 63.3534 428.689 62.8786 429.639 62.4936C430.617 62.0829 431.649 61.7749 432.736 61.5696C433.85 61.3386 435.046 61.2231 436.322 61.2231C438.604 61.2231 440.629 61.5953 442.394 62.3396C444.16 63.0839 445.641 64.1234 446.836 65.4581C448.059 66.7928 448.968 68.3841 449.566 70.2321C450.191 72.0801 450.504 74.1078 450.504 76.3151V101.533H439.297V76.3151C439.297 74.1078 438.754 72.4009 437.667 71.1946C436.58 69.9626 434.978 69.3466 432.859 69.3466C431.283 69.3466 429.802 69.6674 428.417 70.3091C427.031 70.9508 425.714 71.8491 424.464 73.0041V101.533H413.217V44.1291H424.464V65.7276ZM471.033 61.8391V101.533H459.785V61.8391H471.033ZM472.377 50.5586C472.377 51.4569 472.187 52.2911 471.807 53.0611C471.426 53.8311 470.91 54.5113 470.258 55.1016C469.633 55.6919 468.886 56.1539 468.017 56.4876C467.175 56.8213 466.265 56.9881 465.287 56.9881C464.363 56.9881 463.479 56.8213 462.638 56.4876C461.823 56.1539 461.103 55.6919 460.478 55.1016C459.853 54.5113 459.35 53.8311 458.97 53.0611C458.617 52.2911 458.441 51.4569 458.441 50.5586C458.441 49.6603 458.617 48.8261 458.97 48.0561C459.35 47.2604 459.853 46.5674 460.478 45.9771C461.103 45.3868 461.823 44.9248 462.638 44.5911C463.479 44.2574 464.363 44.0906 465.287 44.0906C466.265 44.0906 467.175 44.2574 468.017 44.5911C468.886 44.9248 469.633 45.3868 470.258 45.9771C470.91 46.5674 471.426 47.2604 471.807 48.0561C472.187 48.8261 472.377 49.6603 472.377 50.5586ZM491.877 91.0606C492.937 92.2156 494.078 93.0241 495.3 93.4861C496.55 93.9481 497.881 94.1791 499.294 94.1791C500.652 94.1791 501.889 93.9353 503.002 93.4476C504.116 92.9599 505.067 92.2028 505.855 91.1761C506.67 90.1238 507.294 88.7891 507.729 87.1721C508.164 85.5551 508.381 83.6301 508.381 81.3971C508.381 79.1898 508.191 77.3161 507.811 75.7761C507.457 74.2361 506.942 72.9913 506.262 72.0416C505.61 71.0919 504.809 70.4118 503.858 70.0011C502.908 69.5648 501.848 69.3466 500.679 69.3466C498.696 69.3466 497.025 69.7188 495.667 70.4631C494.336 71.1818 493.072 72.2469 491.877 73.6586V91.0606ZM491.225 67.0366C492.068 66.1639 492.964 65.3683 493.915 64.6496C494.865 63.9053 495.884 63.2764 496.971 62.7631C498.058 62.2241 499.226 61.8134 500.476 61.5311C501.726 61.2231 503.084 61.0691 504.551 61.0691C506.805 61.0691 508.87 61.5311 510.745 62.4551C512.647 63.3534 514.277 64.6753 515.635 66.4206C516.993 68.1403 518.052 70.2578 518.813 72.7731C519.574 75.2884 519.954 78.1631 519.954 81.3971C519.954 84.3744 519.519 87.1336 518.65 89.6746C517.808 92.1899 516.6 94.3716 515.024 96.2196C513.448 98.0676 511.547 99.5178 509.319 100.57C507.118 101.597 504.66 102.11 501.943 102.11C499.661 102.11 497.718 101.789 496.115 101.148C494.539 100.506 493.127 99.6332 491.877 98.5296V114.353H480.63V61.8391H487.558C488.971 61.8391 489.908 62.4551 490.37 63.6871L491.225 67.0366Z" fill="url(#paint3_linear_3101_423)"/>
</g>
<defs>
<linearGradient id="paint0_linear_3101_423" x1="203.588" y1="40" x2="166.241" y2="117.755" gradientUnits="userSpaceOnUse">
<stop stop-color="#C0A4F0"/>
<stop offset="1" stop-color="#1E84FF"/>
</linearGradient>
<linearGradient id="paint1_linear_3101_423" x1="148.79" y1="40" x2="111.442" y2="117.755" gradientUnits="userSpaceOnUse">
<stop stop-color="#3A8AFD"/>
<stop offset="1" stop-color="#DAB2FF"/>
</linearGradient>
<linearGradient id="paint2_linear_3101_423" x1="121.797" y1="55.4361" x2="192.166" y2="55.4361" gradientUnits="userSpaceOnUse">
<stop stop-color="#E3B4FF"/>
<stop offset="0.230681" stop-color="#A0A1FF"/>
<stop offset="0.501303" stop-color="#568DFF" stop-opacity="0.45"/>
<stop offset="0.707983" stop-color="#0777FF"/>
<stop offset="1" stop-color="#479AFF"/>
</linearGradient>
<linearGradient id="paint3_linear_3101_423" x1="207.939" y1="33.1951" x2="530.626" y2="118.85" gradientUnits="userSpaceOnUse">
<stop stop-color="#5190FE"/>
<stop offset="1" stop-color="#C4ADFF"/>
</linearGradient>
<clipPath id="clip0_3101_423">
<rect width="400" height="77" fill="white" transform="translate(120 40)"/>
</clipPath>
</defs>
</svg>
